<svg width="10" height="48" viewBox="0 0 10 48" fill="none" xmlns="http://www.w3.org/2000/svg">
<rect x="4" y="14.0001" width="2" height="20" rx="1" fill="white"/>
<path d="M4.61138 41.9078L0.160979 37.4574C-0.0536598 37.2428 -0.0536598 36.8948 0.160979 36.6802L0.680047 36.1611C0.89432 35.9468 1.24159 35.9464 1.45637 36.1602L5.00001 39.6872L8.54363 36.1602C8.75841 35.9464 9.10568 35.9468 9.31995 36.1611L9.83902 36.6802C10.0537 36.8948 10.0537 37.2428 9.83902 37.4574L5.38864 41.9078C5.174 42.1224 4.82602 42.1224 4.61138 41.9078Z" fill="white"/>
<path d="M4.61138 47.353L0.160979 42.9026C-0.0536598 42.6879 -0.0536598 42.3399 0.160979 42.1253L0.680047 41.6063C0.89432 41.392 1.24159 41.3916 1.45637 41.6053L5.00001 45.1324L8.54363 41.6053C8.75841 41.3916 9.10568 41.392 9.31995 41.6063L9.83902 42.1253C10.0537 42.34 10.0537 42.6879 9.83902 42.9026L5.38864 47.353C5.174 47.5676 4.82602 47.5676 4.61138 47.353Z" fill="white"/>
<path d="M5.38862 5.60612L9.83902 10.0565C10.0537 10.2712 10.0537 10.6192 9.83902 10.8338L9.31995 11.3529C9.10568 11.5671 8.75841 11.5675 8.54363 11.3538L4.99999 7.82673L1.45637 11.3538C1.24159 11.5675 0.89432 11.5671 0.680047 11.3529L0.160979 10.8338C-0.0536604 10.6191 -0.0536604 10.2712 0.160979 10.0565L4.61136 5.60612C4.826 5.3915 5.17398 5.3915 5.38862 5.60612Z" fill="white"/>
<path d="M5.38862 0.160958L9.83902 4.61138C10.0537 4.82602 10.0537 5.17401 9.83902 5.38862L9.31995 5.90769C9.10568 6.12196 8.75841 6.12238 8.54363 5.90861L4.99999 2.38157L1.45637 5.90861C1.24159 6.12238 0.89432 6.12196 0.680047 5.90769L0.160979 5.38862C-0.0536604 5.17398 -0.0536604 4.826 0.160979 4.61138L4.61136 0.160958C4.826 -0.0536579 5.17398 -0.053658 5.38862 0.160958Z" fill="white"/>
</svg>
