<svg width="10" height="12" viewBox="0 0 10 12" fill="none" xmlns="http://www.w3.org/2000/svg">
<path d="M4.61138 5.90771L0.160979 1.45728C-0.0536598 1.24264 -0.0536598 0.894658 0.160979 0.680042L0.680047 0.160974C0.89432 -0.0532986 1.24159 -0.053711 1.45637 0.160058L5.00001 3.6871L8.54363 0.160058C8.75841 -0.053711 9.10568 -0.0532986 9.31995 0.160974L9.83902 0.680042C10.0537 0.894681 10.0537 1.24267 9.83902 1.45728L5.38864 5.90771C5.174 6.12232 4.82602 6.12232 4.61138 5.90771Z" fill="white"/>
<path d="M4.61138 11.3529L0.160979 6.90247C-0.0536598 6.68783 -0.0536598 6.33985 0.160979 6.12523L0.680047 5.60616C0.89432 5.39189 1.24159 5.39148 1.45637 5.60525L5.00001 9.13229L8.54363 5.60525C8.75841 5.39148 9.10568 5.39189 9.31995 5.60616L9.83902 6.12523C10.0537 6.33987 10.0537 6.68786 9.83902 6.90247L5.38864 11.3529C5.174 11.5675 4.82602 11.5675 4.61138 11.3529Z" fill="white"/>
</svg>
