<svg width="164" height="20" viewBox="0 0 164 20" fill="none" xmlns="http://www.w3.org/2000/svg">
<path d="M124.829 8.57015L124.829 8.57048C123.984 10.1294 123.328 11.2686 122.674 12.0254C122.048 12.7497 121.532 13 120.964 13C120.397 13 119.883 12.7503 119.258 12.0258C118.604 11.269 117.949 10.1298 117.105 8.57092L117.105 8.57057L117.076 8.5165C116.243 6.97995 115.238 5.12322 113.851 3.65895C112.417 2.1441 110.531 1 107.97 1C105.408 1 103.521 2.14399 102.086 3.65874C100.699 5.12344 99.6923 6.98082 98.8593 8.51774L98.8308 8.57036L98.8306 8.5707C97.9865 10.1296 97.3303 11.2687 96.6766 12.0255C96.0509 12.7499 95.5355 13 94.9678 13C94.4007 13 93.8859 12.7502 93.2605 12.0257C92.607 11.2688 91.9511 10.1297 91.1069 8.5707L91.1067 8.57036L91.0771 8.51574C90.2444 6.9793 89.2383 5.12287 87.8518 3.65881C86.4172 2.14401 84.5305 1 81.9688 1C79.4074 1 77.5207 2.14405 76.0862 3.65881C74.6983 5.12426 73.6917 6.98273 72.8589 8.52019L72.8317 8.57057L72.8316 8.5707C71.9874 10.1297 71.3314 11.2688 70.678 12.0257C70.0526 12.7502 69.5377 13 68.9707 13C68.4037 13 67.8888 12.7502 67.2634 12.0257C66.61 11.2688 65.954 10.1297 65.1098 8.5707L65.1098 8.57057L65.0824 8.52015C64.2497 6.9827 63.2431 5.12425 61.8552 3.65881C60.4207 2.14405 58.534 1 55.9727 1C53.4117 1 51.5257 2.14418 50.0917 3.65929C48.7049 5.12461 47.6989 6.983 46.8663 8.52108L46.8384 8.57263C45.9947 10.1306 45.339 11.2694 44.6859 12.026C44.0606 12.7505 43.5462 13 42.9805 13C42.416 13 41.9022 12.7508 41.2771 12.0262C40.6243 11.2696 39.9687 10.1308 39.1256 8.57297C39.1256 8.57293 39.1256 8.57289 39.1255 8.57285L39.0979 8.52178C38.2658 6.9836 37.2602 5.12494 35.8738 3.65943C34.4403 2.14426 32.5547 1 29.9941 1C27.4328 1 25.5461 2.14405 24.1116 3.65881C22.7237 5.12426 21.7171 6.98273 20.8843 8.52019L20.857 8.57057L20.857 8.5707C20.0128 10.1297 19.3568 11.2688 18.7034 12.0257C18.0779 12.7502 17.5631 13 16.9961 13C16.4297 13 15.9151 12.7503 15.2897 12.0258C14.6364 11.2689 13.9804 10.1297 13.1362 8.5707L13.1361 8.57057L13.1078 8.51832C12.2753 6.98132 11.2692 5.12373 9.88214 3.65888C8.44781 2.14407 6.56136 1 4 1C2.34354 1 1 2.34193 1 4C1 5.65807 2.34354 7 4 7C4.56638 7 5.08096 7.24968 5.70639 7.97423C6.35973 8.73112 7.01572 9.87034 7.85991 11.4293L7.85998 11.4294L7.88829 11.4817C8.72079 13.0187 9.72694 14.8763 11.114 16.3411C12.5483 17.8559 14.4347 19 16.9961 19C19.5574 19 21.4441 17.856 22.8787 16.3412C24.2665 14.8757 25.2731 13.0173 26.1059 11.4798L26.1332 11.4294L26.1333 11.4293C26.9775 9.87033 27.6334 8.73115 28.2868 7.97429C28.9123 7.24984 29.4271 7 29.9941 7C30.5586 7 31.0724 7.24922 31.6975 7.97378C32.3503 8.73045 33.0059 9.86926 33.8491 11.4271L33.8767 11.4782C34.7088 13.0164 35.7144 14.8751 37.1008 16.3406C38.5343 17.8557 40.4199 19 42.9805 19C45.5415 19 47.4275 17.8558 48.8614 16.3407C50.2483 14.8754 51.2542 13.017 52.0868 11.4789L52.1147 11.4274C52.9584 9.8694 53.6141 8.73064 54.2673 7.97397C54.8925 7.24955 55.4069 7 55.9727 7C56.5397 7 57.0545 7.24984 57.68 7.97429C58.3334 8.73115 58.9893 9.87033 59.8335 11.4293L59.8336 11.4294L59.8609 11.4798C60.6937 13.0173 61.7003 14.8758 63.0881 16.3412C64.5227 17.856 66.4094 19 68.9707 19C71.532 19 73.4187 17.856 74.8533 16.3412C76.2411 14.8757 77.2477 13.0173 78.0805 11.4798L78.1078 11.4294L78.1079 11.4293C78.9521 9.87033 79.608 8.73115 80.2615 7.97429C80.8869 7.24984 81.4017 7 81.9688 7C82.5359 7 83.051 7.24992 83.6766 7.97441C84.3303 8.73125 84.9865 9.87044 85.8306 11.4293L85.8308 11.4296L85.8604 11.4842C86.6931 13.0207 87.6992 14.8771 89.0855 16.3412C90.52 17.8559 92.4064 19 94.9678 19C97.5295 19 99.4164 17.856 100.851 16.3413C102.239 14.8766 103.245 13.0192 104.078 11.4823L104.107 11.4296L104.107 11.4293C104.951 9.87043 105.607 8.73128 106.261 7.97448C106.887 7.25009 107.402 7 107.97 7C108.536 7 109.051 7.24968 109.676 7.97417C110.329 8.731 110.985 9.87018 111.829 11.4291L111.829 11.4294L111.858 11.4835C112.69 13.0201 113.696 14.8768 115.082 16.3411C116.516 17.8559 118.402 19 120.964 19C123.526 19 125.413 17.8561 126.848 16.3413C128.235 14.8774 129.242 13.0212 130.075 11.4849L130.105 11.4298L130.105 11.4295C130.949 9.87057 131.606 8.73143 132.26 7.9746C132.886 7.25025 133.401 7 133.97 7C134.54 7 135.057 7.25083 135.683 7.97503C136.338 8.73182 136.995 9.87081 137.841 11.4296C137.841 11.4297 137.841 11.4298 137.841 11.4299L137.866 11.4764C138.7 13.0157 139.708 14.8759 141.099 16.3423C142.535 17.8569 144.423 19 146.985 19C149.548 19 151.436 17.8569 152.872 16.3423C154.261 14.8765 155.269 13.0172 156.103 11.4784L156.129 11.4299C156.129 11.4298 156.129 11.4297 156.129 11.4296C156.975 9.87081 157.632 8.73182 158.286 7.97503C158.913 7.25083 159.43 7 160 7C161.656 7 163 5.65807 163 4C163 2.34193 161.656 1 160 1C157.437 1 155.549 2.14374 154.113 3.65847C152.724 5.12359 151.717 6.98161 150.883 8.51887L150.855 8.57005C150.855 8.57009 150.855 8.57012 150.855 8.57015C150.01 10.1291 149.353 11.2682 148.698 12.025C148.072 12.7493 147.555 13 146.985 13C146.415 13 145.898 12.7492 145.272 12.025C144.617 11.2682 143.96 10.1292 143.115 8.57038C143.114 8.57027 143.114 8.57016 143.114 8.57005L143.089 8.52362C142.255 6.98435 141.247 5.12408 139.857 3.65768C138.421 2.14311 136.533 1 133.97 1C131.408 1 129.52 2.14393 128.085 3.65868C126.698 5.12258 125.692 6.9788 124.859 8.51516L124.829 8.57015Z" fill="#F24D25" stroke="#F24D25" stroke-width="2"/>
</svg>
