<svg width="320" height="20" viewBox="0 0 320 20" fill="none" xmlns="http://www.w3.org/2000/svg">
<path d="M124.829 8.57015L124.829 8.57048C123.984 10.1294 123.328 11.2686 122.674 12.0254C122.048 12.7497 121.532 13 120.964 13C120.397 13 119.883 12.7503 119.258 12.0258C118.604 11.269 117.949 10.1298 117.105 8.57092L117.105 8.57057L117.076 8.5165C116.243 6.97995 115.238 5.12322 113.851 3.65895C112.417 2.1441 110.531 1 107.97 1C105.408 1 103.521 2.14399 102.086 3.65874C100.699 5.12344 99.6923 6.98082 98.8593 8.51774L98.8308 8.57036L98.8306 8.5707C97.9865 10.1296 97.3303 11.2687 96.6766 12.0255C96.0509 12.7499 95.5355 13 94.9678 13C94.4007 13 93.8859 12.7502 93.2605 12.0257C92.607 11.2688 91.9511 10.1297 91.1069 8.5707L91.1067 8.57036L91.0771 8.51574C90.2444 6.9793 89.2383 5.12287 87.8518 3.65881C86.4172 2.14401 84.5305 1 81.9688 1C79.4074 1 77.5207 2.14405 76.0862 3.65881C74.6983 5.12426 73.6917 6.98273 72.8589 8.52019L72.8317 8.57057L72.8316 8.5707C71.9874 10.1297 71.3314 11.2688 70.678 12.0257C70.0526 12.7502 69.5377 13 68.9707 13C68.4037 13 67.8888 12.7502 67.2634 12.0257C66.61 11.2688 65.954 10.1297 65.1098 8.5707L65.1098 8.57057L65.0824 8.52015C64.2497 6.9827 63.2431 5.12425 61.8552 3.65881C60.4207 2.14405 58.534 1 55.9727 1C53.4117 1 51.5257 2.14418 50.0917 3.65929C48.7049 5.12461 47.6989 6.983 46.8663 8.52108L46.8384 8.57263C45.9947 10.1306 45.339 11.2694 44.6859 12.026C44.0606 12.7505 43.5462 13 42.9805 13C42.416 13 41.9022 12.7508 41.2771 12.0262C40.6243 11.2696 39.9687 10.1308 39.1256 8.57297C39.1256 8.57293 39.1256 8.57289 39.1255 8.57285L39.0979 8.52178C38.2658 6.9836 37.2602 5.12494 35.8738 3.65943C34.4403 2.14426 32.5547 1 29.9941 1C27.4328 1 25.5461 2.14405 24.1116 3.65881C22.7237 5.12426 21.7171 6.98273 20.8843 8.52019L20.857 8.57057L20.857 8.5707C20.0128 10.1297 19.3568 11.2688 18.7034 12.0257C18.0779 12.7502 17.5631 13 16.9961 13C16.4297 13 15.9151 12.7503 15.2897 12.0258C14.6364 11.2689 13.9804 10.1297 13.1362 8.5707L13.1361 8.57057L13.1078 8.51832C12.2753 6.98132 11.2692 5.12373 9.88214 3.65888C8.44781 2.14407 6.56136 1 4 1C2.34354 1 1 2.34193 1 4C1 5.65807 2.34354 7 4 7C4.56638 7 5.08096 7.24968 5.70639 7.97423C6.35973 8.73112 7.01572 9.87034 7.85991 11.4293L7.85998 11.4294L7.88829 11.4817C8.72079 13.0187 9.72694 14.8763 11.114 16.3411C12.5483 17.8559 14.4347 19 16.9961 19C19.5574 19 21.4441 17.856 22.8787 16.3412C24.2665 14.8757 25.2731 13.0173 26.1059 11.4798L26.1332 11.4294L26.1333 11.4293C26.9775 9.87033 27.6334 8.73115 28.2868 7.97429C28.9123 7.24984 29.4271 7 29.9941 7C30.5586 7 31.0724 7.24922 31.6975 7.97378C32.3503 8.73045 33.0059 9.86926 33.8491 11.4271L33.8767 11.4782C34.7088 13.0164 35.7144 14.8751 37.1008 16.3406C38.5343 17.8557 40.4199 19 42.9805 19C45.5415 19 47.4275 17.8558 48.8614 16.3407C50.2483 14.8754 51.2542 13.017 52.0868 11.4789L52.1147 11.4274C52.9584 9.8694 53.6141 8.73064 54.2673 7.97397C54.8925 7.24955 55.4069 7 55.9727 7C56.5397 7 57.0545 7.24984 57.68 7.97429C58.3334 8.73115 58.9893 9.87033 59.8335 11.4293L59.8336 11.4294L59.8609 11.4798C60.6937 13.0173 61.7003 14.8758 63.0881 16.3412C64.5227 17.856 66.4094 19 68.9707 19C71.532 19 73.4187 17.856 74.8533 16.3412C76.2411 14.8757 77.2477 13.0173 78.0805 11.4798L78.1078 11.4294L78.1079 11.4293C78.9521 9.87033 79.608 8.73115 80.2615 7.97429C80.8869 7.24984 81.4017 7 81.9688 7C82.5359 7 83.051 7.24992 83.6766 7.97441C84.3303 8.73125 84.9865 9.87044 85.8306 11.4293L85.8308 11.4296L85.8604 11.4842C86.6931 13.0207 87.6992 14.8771 89.0855 16.3412C90.52 17.8559 92.4064 19 94.9678 19C97.5295 19 99.4164 17.856 100.851 16.3413C102.239 14.8766 103.245 13.0192 104.078 11.4823L104.107 11.4296L104.107 11.4293C104.951 9.87043 105.607 8.73128 106.261 7.97448C106.887 7.25009 107.402 7 107.97 7C108.536 7 109.051 7.24968 109.676 7.97417C110.329 8.731 110.985 9.87018 111.829 11.4291L111.829 11.4294L111.858 11.4835C112.69 13.0201 113.696 14.8768 115.082 16.3411C116.516 17.8559 118.402 19 120.964 19C123.526 19 125.413 17.8561 126.848 16.3413C128.235 14.8774 129.242 13.0212 130.075 11.4849L130.105 11.4298L130.105 11.4295C130.949 9.87057 131.606 8.73143 132.26 7.9746C132.886 7.25025 133.401 7 133.97 7C134.54 7 135.057 7.25083 135.683 7.97503C136.338 8.73182 136.995 9.87081 137.841 11.4296C137.841 11.4297 137.841 11.4298 137.841 11.4299L137.866 11.4764C138.7 13.0157 139.708 14.8759 141.099 16.3423C142.535 17.8569 144.423 19 146.985 19C149.548 19 151.436 17.8569 152.872 16.3423C154.261 14.8765 155.269 13.0172 156.103 11.4784L156.129 11.4299C156.129 11.4298 156.129 11.4297 156.129 11.4296C156.975 9.87081 157.632 8.73182 158.286 7.97503C158.913 7.25083 159.43 7 160 7C161.656 7 163 5.65807 163 4C163 2.34193 161.656 1 160 1C157.437 1 155.549 2.14374 154.113 3.65847C152.724 5.12359 151.717 6.98161 150.883 8.51887L150.855 8.57005C150.855 8.57009 150.855 8.57012 150.855 8.57015C150.01 10.1291 149.353 11.2682 148.698 12.025C148.072 12.7493 147.555 13 146.985 13C146.415 13 145.898 12.7492 145.272 12.025C144.617 11.2682 143.96 10.1292 143.115 8.57038C143.114 8.57027 143.114 8.57016 143.114 8.57005L143.089 8.52362C142.255 6.98435 141.247 5.12408 139.857 3.65768C138.421 2.14311 136.533 1 133.97 1C131.408 1 129.52 2.14393 128.085 3.65868C126.698 5.12258 125.692 6.9788 124.859 8.51516L124.829 8.57015Z" fill="#F24D25" stroke="#F24D25" stroke-width="2"/>
<path d="M280.829 8.57015L280.829 8.57048C279.984 10.1294 279.328 11.2686 278.674 12.0254C278.048 12.7497 277.532 13 276.964 13C276.397 13 275.883 12.7503 275.258 12.0258C274.604 11.269 273.949 10.1298 273.105 8.57092L273.105 8.57057L273.076 8.5165C272.243 6.97995 271.238 5.12322 269.851 3.65895C268.417 2.1441 266.531 1 263.97 1C261.408 1 259.521 2.14399 258.086 3.65874C256.699 5.12344 255.692 6.98082 254.859 8.51774L254.831 8.57036L254.831 8.5707C253.986 10.1296 253.33 11.2687 252.677 12.0255C252.051 12.7499 251.536 13 250.968 13C250.401 13 249.886 12.7502 249.26 12.0257C248.607 11.2688 247.951 10.1297 247.107 8.5707L247.107 8.57036L247.077 8.51574C246.244 6.9793 245.238 5.12287 243.852 3.65881C242.417 2.14401 240.531 1 237.969 1C235.407 1 233.521 2.14405 232.086 3.65881C230.698 5.12426 229.692 6.98273 228.859 8.52019L228.832 8.57057L228.832 8.5707C227.987 10.1297 227.331 11.2688 226.678 12.0257C226.053 12.7502 225.538 13 224.971 13C224.404 13 223.889 12.7502 223.263 12.0257C222.61 11.2688 221.954 10.1297 221.11 8.5707L221.11 8.57057L221.082 8.52015C220.25 6.9827 219.243 5.12425 217.855 3.65881C216.421 2.14405 214.534 1 211.973 1C209.412 1 207.526 2.14418 206.092 3.65929C204.705 5.12461 203.699 6.983 202.866 8.52108L202.838 8.57263C201.995 10.1306 201.339 11.2694 200.686 12.026C200.061 12.7505 199.546 13 198.98 13C198.416 13 197.902 12.7508 197.277 12.0262C196.624 11.2696 195.969 10.1308 195.126 8.57297C195.126 8.57293 195.126 8.57289 195.126 8.57285L195.098 8.52178C194.266 6.9836 193.26 5.12494 191.874 3.65943C190.44 2.14426 188.555 1 185.994 1C183.433 1 181.546 2.14405 180.112 3.65881C178.724 5.12426 177.717 6.98273 176.884 8.52019L176.857 8.57057L176.857 8.5707C176.013 10.1297 175.357 11.2688 174.703 12.0257C174.078 12.7502 173.563 13 172.996 13C172.43 13 171.915 12.7503 171.29 12.0258C170.636 11.2689 169.98 10.1297 169.136 8.5707L169.136 8.57057L169.108 8.51832C168.275 6.98132 167.269 5.12373 165.882 3.65888C164.448 2.14407 162.561 1 160 1C158.344 1 157 2.34193 157 4C157 5.65807 158.344 7 160 7C160.566 7 161.081 7.24968 161.706 7.97423C162.36 8.73112 163.016 9.87034 163.86 11.4293L163.86 11.4294L163.888 11.4817C164.721 13.0187 165.727 14.8763 167.114 16.3411C168.548 17.8559 170.435 19 172.996 19C175.557 19 177.444 17.856 178.879 16.3412C180.267 14.8757 181.273 13.0173 182.106 11.4798L182.133 11.4294L182.133 11.4293C182.977 9.87033 183.633 8.73115 184.287 7.97429C184.912 7.24984 185.427 7 185.994 7C186.559 7 187.072 7.24922 187.698 7.97378C188.35 8.73045 189.006 9.86926 189.849 11.4271L189.877 11.4782C190.709 13.0164 191.714 14.8751 193.101 16.3406C194.534 17.8557 196.42 19 198.98 19C201.541 19 203.427 17.8558 204.861 16.3407C206.248 14.8754 207.254 13.017 208.087 11.4789L208.115 11.4274C208.958 9.8694 209.614 8.73064 210.267 7.97397C210.893 7.24955 211.407 7 211.973 7C212.54 7 213.055 7.24984 213.68 7.97429C214.333 8.73115 214.989 9.87033 215.834 11.4293L215.834 11.4294L215.861 11.4798C216.694 13.0173 217.7 14.8758 219.088 16.3412C220.523 17.856 222.409 19 224.971 19C227.532 19 229.419 17.856 230.853 16.3412C232.241 14.8757 233.248 13.0173 234.081 11.4798L234.108 11.4294L234.108 11.4293C234.952 9.87033 235.608 8.73115 236.261 7.97429C236.887 7.24984 237.402 7 237.969 7C238.536 7 239.051 7.24992 239.677 7.97441C240.33 8.73125 240.986 9.87044 241.831 11.4293L241.831 11.4296L241.86 11.4842C242.693 13.0207 243.699 14.8771 245.086 16.3412C246.52 17.8559 248.406 19 250.968 19C253.53 19 255.416 17.856 256.851 16.3413C258.239 14.8766 259.245 13.0192 260.078 11.4823L260.107 11.4296L260.107 11.4293C260.951 9.87043 261.607 8.73128 262.261 7.97448C262.887 7.25009 263.402 7 263.97 7C264.536 7 265.051 7.24968 265.676 7.97417C266.329 8.731 266.985 9.87018 267.829 11.4291L267.829 11.4294L267.858 11.4835C268.69 13.0201 269.696 14.8768 271.082 16.3411C272.516 17.8559 274.402 19 276.964 19C279.526 19 281.413 17.8561 282.848 16.3413C284.235 14.8774 285.242 13.0212 286.075 11.4849L286.105 11.4298L286.105 11.4295C286.949 9.87057 287.606 8.73143 288.26 7.9746C288.886 7.25025 289.401 7 289.97 7C290.54 7 291.057 7.25083 291.683 7.97503C292.338 8.73182 292.995 9.87081 293.841 11.4296C293.841 11.4297 293.841 11.4298 293.841 11.4299L293.866 11.4764C294.7 13.0157 295.708 14.8759 297.099 16.3423C298.535 17.8569 300.423 19 302.985 19C305.548 19 307.436 17.8569 308.872 16.3423C310.261 14.8765 311.269 13.0172 312.103 11.4784L312.129 11.4299C312.129 11.4298 312.129 11.4297 312.129 11.4296C312.975 9.87081 313.632 8.73182 314.286 7.97503C314.913 7.25083 315.43 7 316 7C317.656 7 319 5.65807 319 4C319 2.34193 317.656 1 316 1C313.437 1 311.549 2.14374 310.113 3.65847C308.724 5.12359 307.717 6.98161 306.883 8.51887L306.855 8.57005C306.855 8.57009 306.855 8.57012 306.855 8.57015C306.01 10.1291 305.353 11.2682 304.698 12.025C304.072 12.7493 303.555 13 302.985 13C302.415 13 301.898 12.7492 301.272 12.025C300.617 11.2682 299.96 10.1292 299.115 8.57038C299.114 8.57027 299.114 8.57016 299.114 8.57005L299.089 8.52362C298.255 6.98435 297.247 5.12408 295.857 3.65768C294.421 2.14311 292.533 1 289.97 1C287.408 1 285.52 2.14393 284.085 3.65868C282.698 5.12258 281.692 6.9788 280.859 8.51516L280.829 8.57015Z" fill="#F24D25" stroke="#F24D25" stroke-width="2"/>
</svg>
