<svg width="48" height="10" viewBox="0 0 48 10" fill="none" xmlns="http://www.w3.org/2000/svg">
<rect x="14.0001" y="6" width="2" height="20" rx="1" transform="rotate(-90 14.0001 6)" fill="#212738" fill-opacity="0.8"/>
<path d="M41.9078 5.38862L37.4574 9.83902C37.2428 10.0537 36.8948 10.0537 36.6802 9.83902L36.1611 9.31995C35.9468 9.10568 35.9464 8.75841 36.1602 8.54363L39.6872 4.99999L36.1602 1.45637C35.9464 1.24159 35.9468 0.89432 36.1611 0.680047L36.6802 0.160979C36.8948 -0.0536604 37.2428 -0.0536604 37.4574 0.160979L41.9078 4.61136C42.1224 4.826 42.1224 5.17398 41.9078 5.38862Z" fill="#212738" fill-opacity="0.8"/>
<path d="M47.353 5.38862L42.9026 9.83902C42.688 10.0537 42.34 10.0537 42.1254 9.83902L41.6063 9.31995C41.392 9.10568 41.3916 8.75841 41.6054 8.54363L45.1324 4.99999L41.6054 1.45637C41.3916 1.24159 41.392 0.89432 41.6063 0.680047L42.1254 0.160979C42.34 -0.0536604 42.688 -0.0536604 42.9026 0.160979L47.353 4.61136C47.5676 4.826 47.5676 5.17398 47.353 5.38862Z" fill="#212738" fill-opacity="0.8"/>
<path d="M5.60609 4.61137L10.0565 0.160972C10.2712 -0.0536674 10.6191 -0.0536674 10.8338 0.160972L11.3528 0.68004C11.5671 0.894313 11.5675 1.24159 11.3537 1.45636L7.8267 5L11.3537 8.54362C11.5675 8.7584 11.5671 9.10567 11.3528 9.31995L10.8338 9.83901C10.6191 10.0537 10.2711 10.0537 10.0565 9.83901L5.60609 5.38864C5.39147 5.174 5.39147 4.82601 5.60609 4.61137Z" fill="#212738" fill-opacity="0.8"/>
<path d="M0.160897 4.61137L4.61132 0.160972C4.82596 -0.0536674 5.17395 -0.0536674 5.38856 0.160972L5.90763 0.68004C6.1219 0.894313 6.12231 1.24159 5.90855 1.45636L2.38151 5L5.90855 8.54362C6.12231 8.7584 6.1219 9.10567 5.90763 9.31995L5.38856 9.83901C5.17392 10.0537 4.82594 10.0537 4.61132 9.83901L0.160897 5.38864C-0.053719 5.174 -0.053719 4.82601 0.160897 4.61137Z" fill="#212738" fill-opacity="0.8"/>
</svg>
