<svg width="115" height="16" viewBox="0 0 115 16" fill="none" xmlns="http://www.w3.org/2000/svg">
<path d="M111.613 2.55C108.529 2.55 107.059 5.26132 105.878 7.43877C104.718 9.57693 103.918 10.875 102.584 10.875C101.248 10.875 100.448 9.57693 99.2883 7.43877C98.1074 5.25996 96.6373 2.55 93.554 2.55C90.4721 2.55 89.0033 5.26132 87.8224 7.43877C86.6639 9.57693 85.8645 10.875 84.5312 10.875C83.1999 10.875 82.4012 9.57693 81.244 7.43877C80.0645 5.26132 78.597 2.55 75.5165 2.55C72.4353 2.55 70.9665 5.26132 69.7863 7.43877C68.6285 9.57693 67.829 10.875 66.4964 10.875C65.1644 10.875 64.3657 9.57693 63.2079 7.43877C62.0277 5.26132 60.5595 2.55 57.4783 2.55C54.3978 2.55 52.929 5.26132 51.7495 7.43877C50.5916 9.57693 49.7929 10.875 48.4609 10.875C47.129 10.875 46.3302 9.57693 45.1724 7.43877C43.9929 5.26132 42.5241 2.55 39.4435 2.55C36.3637 2.55 34.8962 5.26132 33.7167 7.44013C32.5596 9.57693 31.7608 10.875 30.4302 10.875C29.101 10.875 28.3022 9.57693 27.1457 7.44013C25.9669 5.26132 24.5001 2.55 21.4209 2.55C18.3404 2.55 16.8716 5.26132 15.6921 7.43877C14.5342 9.57693 13.7355 10.875 12.4035 10.875C11.0723 10.875 10.2735 9.57693 9.11568 7.43877C7.93617 5.26132 6.46805 2.55 3.3875 2.55C2.62126 2.55 2 3.17058 2 3.9375C2 4.70442 2.62126 5.325 3.3875 5.325C4.71877 5.325 5.51753 6.62308 6.67536 8.76123C7.85487 10.9387 9.32299 13.65 12.4035 13.65C15.4841 13.65 16.9529 10.9387 18.1324 8.76123C19.2902 6.62308 20.089 5.325 21.4209 5.325C22.7502 5.325 23.5489 6.62308 24.7054 8.75988C25.8842 10.9387 27.351 13.65 30.4302 13.65C33.5101 13.65 34.9775 10.9387 36.157 8.75988C37.3142 6.62308 38.1129 5.325 39.4435 5.325C40.7755 5.325 41.5742 6.62308 42.7321 8.76123C43.9116 10.9387 45.3804 13.65 48.4609 13.65C51.5415 13.65 53.0103 10.9387 54.1898 8.76123C55.3476 6.62308 56.1464 5.325 57.4783 5.325C58.8103 5.325 59.6097 6.62308 60.7675 8.76123C61.9477 10.9387 63.4158 13.65 66.4964 13.65C69.5776 13.65 71.0464 10.9387 72.2266 8.76123C73.3844 6.62308 74.1839 5.325 75.5165 5.325C76.8478 5.325 77.6465 6.62308 78.8037 8.76123C79.9832 10.9387 81.4506 13.65 84.5312 13.65C87.6131 13.65 89.0819 10.9387 90.2628 8.76123C91.4213 6.62308 92.2207 5.325 93.554 5.325C94.8893 5.325 95.6895 6.62308 96.8493 8.76123C98.0302 10.94 99.5003 13.65 102.584 13.65C105.667 13.65 107.136 10.94 108.317 8.76123C109.477 6.62308 110.277 5.325 111.613 5.325C112.379 5.325 113 4.70442 113 3.9375C113 3.17058 112.379 2.55 111.613 2.55Z" fill="#212738" fill-opacity="0.8"/>
<path d="M86.9434 6.96205L86.9432 6.96238C86.3542 8.04939 85.9139 8.8093 85.4857 9.3049C85.0855 9.76801 84.8053 9.875 84.5312 9.875C84.2587 9.875 83.9792 9.76858 83.5793 9.30533C83.1516 8.80974 82.7117 8.04978 82.1235 6.96281L82.1233 6.96247L82.0959 6.91186C81.5229 5.8539 80.809 4.53573 79.8193 3.49036C78.7823 2.39488 77.3979 1.55 75.5165 1.55C73.6348 1.55 72.2501 2.39477 71.2125 3.49015C70.222 4.53583 69.5074 5.85445 68.934 6.91266L68.9071 6.96226L68.9069 6.9626C68.3184 8.04954 67.8782 8.80946 67.4501 9.30502C67.0501 9.76817 66.77 9.875 66.4964 9.875C66.2234 9.875 65.9437 9.76842 65.5438 9.30521C65.1159 8.80959 64.6758 8.04964 64.0872 6.9626L64.087 6.96226L64.0594 6.91137C63.4862 5.85346 62.7719 4.53547 61.782 3.49022C60.7446 2.39479 59.36 1.55 57.4783 1.55C55.5969 1.55 54.2123 2.39483 53.1749 3.49022C52.1841 4.53643 51.4696 5.85579 50.8962 6.91436L50.8702 6.96247L50.8701 6.9626C50.2815 8.04963 49.8414 8.80959 49.4136 9.30521C49.0136 9.76842 48.734 9.875 48.4609 9.875C48.1879 9.875 47.9082 9.76842 47.5083 9.30521C47.0804 8.80959 46.6404 8.04963 46.0517 6.9626L46.0517 6.96247L46.0256 6.91433C45.4523 5.85576 44.7377 4.53642 43.7469 3.49022C42.7095 2.39483 41.3249 1.55 39.4435 1.55C37.5623 1.55 36.1782 2.39496 35.1412 3.49063C34.1511 4.53675 33.437 5.85608 32.8638 6.91508L32.8374 6.96393C32.2491 8.05026 31.8092 8.80995 31.3815 9.30546C30.9816 9.76871 30.7023 9.875 30.4302 9.875C30.1591 9.875 29.8801 9.76904 29.4803 9.30564C29.0529 8.81014 28.6131 8.0504 28.0252 6.96415L27.9989 6.91557C27.426 5.85651 26.7122 4.53702 25.7224 3.49076C24.6858 2.39504 23.3019 1.55 21.4209 1.55C19.5395 1.55 18.1549 2.39483 17.1175 3.49022C16.1267 4.53643 15.4122 5.85579 14.8389 6.91436L14.8128 6.96247L14.8127 6.9626C14.2241 8.04963 13.7841 8.80959 13.3562 9.30521C12.9563 9.76842 12.6766 9.875 12.4035 9.875C12.131 9.875 11.8515 9.76858 11.4516 9.30527C11.0237 8.80962 10.5837 8.04962 9.99503 6.9626L9.99496 6.96247C9.98608 6.94608 9.97717 6.92963 9.96823 6.91311C9.39507 5.85484 8.68084 4.53608 7.69061 3.49029C6.65338 2.39485 5.26892 1.55 3.3875 1.55C2.06929 1.55 1 2.61798 1 3.9375C1 5.25703 2.06929 6.325 3.3875 6.325C3.66004 6.325 3.93955 6.43142 4.33948 6.89474C4.76732 7.39039 5.20738 8.15038 5.79601 9.23741L5.79608 9.23753C5.80496 9.25392 5.81387 9.27038 5.82281 9.2869C6.39597 10.3452 7.1102 11.6639 8.10043 12.7097C9.13766 13.8052 10.5221 14.65 12.4035 14.65C14.2849 14.65 15.6695 13.8052 16.7069 12.7098C17.6977 11.6636 18.4123 10.3442 18.9856 9.28565L19.0117 9.23753L19.0117 9.23741C19.6004 8.15037 20.0404 7.39042 20.4683 6.8948C20.8682 6.43159 21.1479 6.325 21.4209 6.325C21.692 6.325 21.971 6.43097 22.3708 6.89436C22.7983 7.38987 23.2381 8.1496 23.826 9.23586L23.8522 9.28444C24.4251 10.3435 25.1389 11.663 26.1287 12.7092C27.1654 13.805 28.5493 14.65 30.4302 14.65C32.3114 14.65 33.6956 13.8051 34.7325 12.7094C35.7226 11.6633 36.4367 10.3439 37.0099 9.28495L37.0364 9.23607C37.0364 9.23603 37.0364 9.23599 37.0364 9.23595C37.6247 8.14969 38.0646 7.39004 38.4922 6.89455C38.8921 6.4313 39.1715 6.325 39.4435 6.325C39.7166 6.325 39.9963 6.43159 40.3962 6.8948C40.824 7.39042 41.2641 8.15037 41.8527 9.23741L41.8528 9.23753L41.8788 9.28564C42.4522 10.3442 43.1667 11.6636 44.1575 12.7098C45.1949 13.8052 46.5795 14.65 48.4609 14.65C50.3423 14.65 51.7269 13.8052 52.7643 12.7098C53.7551 11.6636 54.4697 10.3442 55.043 9.28568L55.0691 9.23754L55.0691 9.23741C55.6578 8.15037 56.0978 7.39042 56.5257 6.8948C56.9256 6.43159 57.2053 6.325 57.4783 6.325C57.7514 6.325 58.0313 6.43167 58.4314 6.89492C58.8594 7.39052 59.2996 8.15048 59.8882 9.23741L59.8884 9.23775L59.9159 9.28862C60.4892 10.3465 61.2034 11.6645 62.1932 12.7098C63.2305 13.8052 64.615 14.65 66.4964 14.65C68.3781 14.65 69.7628 13.8052 70.8004 12.7099C71.7909 11.6642 72.5054 10.3456 73.0789 9.28734L73.1058 9.23775L73.106 9.23741C73.6945 8.15047 74.1347 7.39055 74.5628 6.89499C74.9628 6.43184 75.2429 6.325 75.5165 6.325C75.789 6.325 76.0685 6.43142 76.4683 6.89467C76.8961 7.39027 77.336 8.15022 77.9242 9.23719L77.9244 9.23754L77.9518 9.28815C78.5248 10.3461 79.2387 11.6643 80.2283 12.7097C81.2654 13.8051 82.6497 14.65 84.5312 14.65C86.4131 14.65 87.798 13.8053 88.8358 12.7099C89.826 11.6648 90.5405 10.347 91.1141 9.28913L91.1418 9.23796L91.142 9.23763C91.731 8.15062 92.1713 7.3907 92.5995 6.89511C92.9996 6.432 93.2799 6.325 93.554 6.325C93.8297 6.325 94.1107 6.43258 94.5112 6.89554C94.9399 7.39114 95.3806 8.15101 95.9703 9.23805L95.9949 9.28351C96.5692 10.3433 97.2848 11.6638 98.2774 12.7107C99.3158 13.806 100.701 14.65 102.584 14.65C104.466 14.65 105.851 13.8059 106.89 12.7106C107.882 11.6642 108.597 10.3442 109.171 9.2847L109.196 9.23805C109.786 8.15101 110.227 7.39114 110.655 6.89554C111.056 6.43258 111.337 6.325 111.613 6.325C112.931 6.325 114 5.25702 114 3.9375C114 2.61799 112.931 1.55 111.613 1.55C109.73 1.55 108.345 2.39453 107.306 3.48988C106.315 4.53586 105.599 5.85494 105.026 6.91339L104.999 6.96195C104.41 8.04898 103.969 8.8089 103.54 9.30453C103.14 9.76759 102.859 9.875 102.584 9.875C102.308 9.875 102.027 9.76743 101.626 9.30446C101.198 8.80892 100.757 8.04914 100.167 6.96228C100.167 6.96217 100.167 6.96206 100.167 6.96195L100.143 6.91655C99.5684 5.85677 98.8528 4.53618 97.8602 3.48931C96.8218 2.39404 95.4363 1.55 93.554 1.55C91.6721 1.55 90.2872 2.39471 89.2494 3.49008C88.2592 4.5352 87.5447 5.85304 86.9711 6.91089L86.9434 6.96205Z" stroke="#212738" stroke-opacity="0.8" stroke-width="2"/>
</svg>
